<?xml version="1.0" encoding="UTF-8"?>
<svg id="Capa_2" data-name="Capa 2" xmlns="http://www.w3.org/2000/svg" viewBox="0 0 2426.47 704.03">
  <defs>
    <style>
      .cls-1 {
        fill-rule: evenodd;
      }
    </style>
  </defs>
  <g id="Capa_1-2" data-name="Capa 1">
    <g>
      <path class="cls-1" d="M1645.4,0l-1.72,1.73c-1.36,0-2.08-.69-2.08-1.73h-1.72c-3.45,1.73-10.36,3.79-20.73,5.53v2.08c-8.96,0-15.89,1.04-20.36,3.79-4.49,0-5.16,.35-1.36,1.39l-2.08,.35c-5.19,0-22.44,9.66-51.45,29.69-29.69,20.03-44.56,32.45-44.89,36.6l-5.19,2.43-4.12,3.45v1.73l-35.21,57.31-7.6,9.66c-7.95,14.16-12.44,24.86-13.13,31.43-2.08,10.71,0,21.41,5.53,32.11,5.16,8.98,7.6,14.51,7.6,15.89,1.04,0,3.45-1.37,7.6-3.79l3.8,9.33c3.45,0,7.57,1.04,13.1,2.76,5.19,2.06,9.35,2.76,12.79,3.1,0,.7,1.04,1.37,3.8,1.37l5.53-1.37c15.2-9.66,25.2-20.36,29.69-32.11l3.11-18.3c1.04-3.1,2.41-5.51,3.8-7.25,0-1.04-1.04-1.73-3.11-1.73l6.91-13.13c-.35,0-.35-2.08,0-5.88,.14-1.57,.61-3.1,1.36-4.49l2.44-7.95c1.36,0,2.41,.7,3.77,1.73v2.08h1.73l-1.73-9.68c2.08,0,5.55-3.79,10.36-11.05l7.95-14.85c1.36,0,2.76,1.39,3.8,3.8h2.08c0-5.53,3.45-11.06,10.34-16.58l17.28-11.05,9.33,1.73c0-1.04,1.04-4.49,3.8-9.33h3.8l-2.08,7.6h2.08v-2.08l12.09-6.91c6.89-4.14,12.76-4.84,17.6-2.41h1.72l-1.72-5.88h10.71v2.08c.69,0,1.36-.35,2.41-.69l42.45-1.37c0-1.04-1.36-1.73-3.8-1.73v-1.73h11.4c0,2.43,2.76,4.84,8.99,7.6-.35-1.37,1.04-.69,3.45,1.73,0,1.37,.69,1.73,2.08,2.08,0-1.73,1.04-3.11,3.8-3.8v-4.14h1.72c0,3.11,1.04,6.21,3.8,9.66v2.08h2.08v-2.08h1.72v-1.73h-3.8v-2.08l3.8,2.08,10.69,5.53c2.08,0,3.11,1.73,3.8,5.53l5.53-3.79c0,2.41,2.08,5.53,6.23,9.33l8.61,11.05h5.53c1.39,0,2.79,1.37,4.51,4.82l2.76,7.26,6.56,4.82c8.29,10.01,14.85,15.54,19.69,16.58l-3.8,3.79h-1.75v1.73c1.39,0,5.19,2.43,11.08,7.6,8.64,19.69,13.45,31.76,14.49,36.59h2.08v2.08h1.72c0-1.37-.35-2.76-1.72-3.8v-2.06h1.72c0,1.37,.69,2.41,2.08,3.79,1.36,0,1.72,.7,1.72,2.08-1.04,0-1.72,.69-1.72,1.73h-3.8c0,1.37,3.09,3.8,9.33,7.6,0,6.9,.69,11.39,2.08,13.13,0,1.37-.35,1.73-1.04,2.08l-2.76-.69h-2.08c0,1.73,2.76,2.76,7.6,3.8l2.76,20.71c1.36,9.66,1.04,15.89-.69,18.3v2.08l7.25,1.73v2.08c-1.04-.34-1.72,3.45-1.72,10.7-1.39,0-2.08,.69-1.72,1.73h1.72v2.08h-3.8l2.08-5.54c-3.8-.34-4.84,2.43-3.8,7.26h-2.08c0-1.73-1.72-3.8-5.53-5.53v-1.73h-2.08c0,1.04,.69,2.43,2.08,3.46v2.08h-2.08c0-2.43-8.29-7.95-24.88-17.28l-42.45-21.4-27.96-6.91c-13.8-3.1-22.8-3.1-26.93-.34l-6.91-2.08h-2.08v-2.08h-3.77v5.86h-3.84c0-1.37-1.04-2.06-2.76-1.73h-4.84l-9.33,3.45v-1.73h-1.39v3.8h-1.72v-2.08c-1.72,0-3.11,.69-3.8,2.08h-9.65c0-1.37-1.04-2.08-3.83-2.08v2.08c-.9-.05-1.67,.64-1.72,1.54,0,.06,0,.12,0,.19-4.81,0-10,2.41-14.49,7.25l-7.6-2.08c0,2.08-2.76,4.14-7.95,5.53l-10.34,3.79h-3.8v-1.73l-16.93,14.85c-1.39,0-2.08,.7-2.08,2.08-2.05,0-5.53,2.43-10,6.91l-8.29,9.66c-6.56,0-13.13,6.56-20.04,20.03v2.08c-1.36,0-2.08,.69-2.08,1.73h-1.73v2.08l-3.8,3.79c1.04,0-2.08,4.49-9.65,14.15l-17.96,21.06h1.73l-16.91,24.51-7.25,14.85-16.93,16.24h-1.73c0,1.36-2.08,1.36-5.88,0h-1.36c0,.69-1.73,1.73-5.53,2.41l-25.91,3.48-26.24,10.34h-1.73c0,.71-4.12,1.75-13.13,3.48l-44.17-.35c-22.11-1.04-35.56-3.11-39.36-6.21-5.19-4.15-8.64-11.75-10.36-22.8l1.04-20.01c-.71-17.63-.35-30.04,1.36-36.96l6.23-24.16c-.35-15.54,1.73-35.21,5.88-59.04l10.34-57.65,4.84-55.6,8.64-31.08c3.45-13.11,4.84-23.83,4.49-32.11-.51-8.19-3.52-16.02-8.64-22.44-5.53-7.59-12.41-11.74-20.01-12.78-15.2-1.73-25.56,6.56-31.76,24.86-3.45,10.36-5.19,25.9-5.53,46.61l-.35,49.03c-1.73,40.05-6.56,78.38-14.85,115.31l-3.8,25.9c-1.73,11.74-3.8,19.68-6.56,23.83,0,19.68-.69,34.19-2.41,44.2l-7.28,46.25c.35,19.35,5.55,36.28,14.51,50.41,11.05,17.28,25.54,22.8,43.5,16.24v2.08l1.75-.35c12.09-3.8,22.77-6.56,31.41-7.92l20.36-3.11c1.04,0,1.73,2.08,1.73,5.88h2.08l1.73-5.88v-1.39h32.45c14.51,1.04,23.49,4.51,26.95,10.71l2.41-.69,1.36-1.04,15.2,7.6c-.35-1.04,.71-1.04,3.11,0,0-3.48,3.11-1.04,9.33,7.6,0,1.01,.69,1.73,2.08,1.73,0-1.73,1.73-3.11,5.53-3.8l1.73,5.53c7.92,0,15.52,3.45,22.77,10,7.95,7.25,14.16,11.4,17.96,12.44l-3.45,5.53,40.4,36.94h3.77l-1.36-4.84-2.41-4.49h2.05c0,3.11,3.48,5.19,10.36,6.91l13.83,2.41v1.73c-1.39,0-2.08-.69-2.08-1.73-1.39,0-2.08,1.04-1.73,3.48h3.8c-.35,2.05,.32,1.36,1.73-1.75l11.05,1.75,4.15,7.6h3.77l-2.08-5.55h2.08c-.32,5.55,11.4,7.28,34.53,5.55l25.89-1.75c0-1.73,4.51-2.41,13.15-2.08,9.65,.35,15.17-.69,16.56-3.77,11.72,0,18.97,2.05,22.77,5.85h1.72c0-4.12,2.08-6.56,6.23-7.25l10.36-.35c1.04,0,1.72-1.36,1.72-3.8v-1.36c1.39,0,2.41,1.73,3.8,5.16l14.49-6.89c0,3.45,6.23,.32,19-9.68,0,2.76,5.53,1.73,16.56-1.73l20.39-9.33c0,1.39,1.36,3.45,3.45,5.53,12.76-8.64,21.05-13.48,24.5-14.85,0-1.73,2.44-1.73,6.91,0v-5.53c1.36,0,3.11,1.36,5.88,3.8,0-3.8,3.09-6.21,9.65-7.95l16.24,.35c1.04-3.8,5.19-7.25,11.72-9.33,7.6-2.76,12.09-5.19,14.19-7.6h3.77v1.73h-2.05v11.4h3.77l-1.72-3.45h5.53c0,9.65,.69,15.89,1.72,18.65l3.83,16.56h-1.75v1.73c2.08,.35,5.53,3.48,10.36,10,10,13.48,22.8,20.73,38,21.43l48.34-2.08,17.94,.32,2.79-3.45,8.61-.32v-3.83c7.6-1.01,12.44-2.41,14.51-3.77l15.17,2.05v-3.8c0-1.36,1.04-2.05,3.8-2.41,2.79,0,4.51-.69,5.19-1.39l15.17,2.08c4.84,0,8.64-.69,10.71-2.08h1.72l-1.72,3.8h1.72v1.75c1.04,0,2.44-1.75,3.8-5.55l8.29,1.39c8.29-1.04,17.63-4.49,27.96-10.36,13.48-7.25,22.44-11.4,26.95-13.13,0-1.73,6.54-3.09,19.66-5.16l24.88-3.8v1.36h2.08c0,1.39-2.08,1.75-5.53,2.08,0,2.08,2.41,2.44,6.89,1.73,0,1.04,.69,2.08,1.72,2.44,17.6,5.85,28.33,10,31.76,12.76,7.25-.35,19,1.73,35.24,5.53v-5.53h1.72c0,1.73,3.09,3.45,8.61,5.16l11.75,2.44c0,.32,1.72,.32,5.53,0,19.33-2.44,42.13,2.41,68.7,14.49l3.48,.35,12.41-.35,8.31-1.73c8.61-2.08,15.17-5.88,19.66-11.05,9.35-10.36,12.79-22.8,10.36-37.29-1.72-14.16-8.61-24.53-20.36-31.41-3.1-1.73-6.33-3.23-9.65-4.49l-7.6-1.06c0-1.01-1.75-2.41-5.55-4.12v-1.73l-1.36,1.73h-2.08v2.08h-3.8c0-1.04-1.72-1.04-5.53,0,0-1.39-.69-2.08-1.72-2.08v2.08h-3.8v2.05h-12.76l-54.21,3.48c0-.69-1.72-1.39-5.19-1.39l-33.49-1.73c-14.14-1.73-25.2-1.73-33.49-.35v-2.05h-3.45v2.05h1.72c0,1.06-.69,1.75-1.72,1.75v-1.75l-43.51-1.73-45.58,1.73-7.6,1.75-64.9,3.8c0,.32-1.72,1.36-5.19,1.73v-1.73c-1.36,0-2.05,.69-1.72,1.73h-2.08c0,1.04-1.36,1.36-4.12,1.36l-7.25,.71-18.31-2.08v2.08l-7.6-2.08c-.69,0-1.72-.35-3.09-1.39l-2.44-2.41v-1.73c-8.26,0-8.61-8.64-.32-25.56,7.6-16.93,14.85-26.24,21.05-28.33l-1.36-3.77-2.44-3.48c2.08-.35,5.19-2.76,9.33-7.6,4.15-5.16,5.88-8.64,5.19-10.69v-2.08l7.6-1.73c0-1.04-1.04-2.44-3.48-3.8l9.33-2.08v-1.73h-3.8v-2.08h-2.05v-1.73c2.05,0,6.56-4.49,13.8-13.8l14.16-17.6-5.55-2.08h1.75c0-1.39,.69-2.76,2.05-3.11l7.28-3.8c-3.48,0-.35-5.85,8.96-16.91,1.39-.34,1.72-2.78,1.72-7.6,1.04,0,1.72,.35,2.44,1.04l1.36,.7c1.39,0,2.44-1.04,3.48-2.76l33.81-46.26c19-24.18,31.08-36.95,35.24-37.99l-1.72-5.53h1.72c0-.69,2.05-.69,5.85,0-.32-4.49,1.75-8.98,5.53-13.46l10.71-10.7c1.36,0,.69-1.04-1.72-3.8v-1.37l5.53,1.37v-1.37c.69,0,.69-1.73,0-5.53,1.36,0,2.41,.69,3.8,1.73v2.08h2.08l-2.08-7.6c3.09-.34,5.85-2.41,8.61-6.21l4.15-10.7h3.8c0-3.11,1.04-3.8,3.09-1.37,1.04-1.04,1.75-2.76,2.44-5.86,2.76,1.04,5.53-.7,8.96-4.5,3.48-4.14,5.53-7.59,5.53-10.35,.71,0,3.11-1.37,7.6-3.8l2.08-3.79v1.73l2.08-1.73c9.06-8.97,16.44-19.49,21.76-31.08,6.56-14.51,6.56-25.55,0-33.5h5.53c0-.69-1.39-4.14-4.15-9.66l-6.89-16.58-18.31-18.29h-2.08c0-1.05-1.72-.35-5.53,1.73v-3.8l-20.01-3.8c-1.39,0-2.76,.69-4.15,2.08l2.08-3.79-20.36,1.73c.05-.9-.64-1.67-1.54-1.73-.06,0-.12,0-.19,0,0,1.04-.71,1.73-2.08,1.73,0,1.04-3.8,1.04-11.05,0v2.08l-40.4-2.08c-.35,1.37-2.76,2.08-7.6,2.08l-14.85,1.73c-3.8,0-7.92,1.37-13.13,3.8v-1.73c-6.21,0-16.24,3.79-29.69,11.04h-3.48c-.32,1.39-1.36,1.39-3.8,0h-2.05v3.8h-3.8c0-1.04-1.39-1.73-4.15-1.73h-10.36c0,1.73-2.08,2.43-6.21,2.43l-23.49,5.51-35.21,2.76-27.96-2.08c0,3.11-4.49,3.79-13.48,2.08-8.96-1.37-14.14-3.45-16.21-5.53-8.07,.04-16.11-1.12-23.84-3.45,0,1.37-2.41,2.06-6.56,2.41l-8.64,1.04h-1.72c0-1.04-10,3.11-29.69,13.13,0,1.04-.69,1.73-1.36,2.08,0-1.04-2.08-4.84-5.53-11.74l-3.8,2.08c-2.44,0-5.88-3.11-11.08-9.33l-11.37-12.78c-2.08,0-5.53-2.43-9.68-6.91l-8.96-9.68-35.24-22.44c-2.76,0-12.41-3.79-29.69-10.7l-34.88-8.29-55.59-3.15h0Zm-18.64,346.31v-1.73h1.72c0,1.04,3.11,.35,9.33-2.08v-1.37h2.08l-2.08,7.24h2.08v-2.06c.32,0,1.72-2.43,3.8-6.91h-2.08v-2.08c5.53,0,11.4,1.73,18.31,5.17v-1.36h2.05c0-1.39-2.05-3.8-5.88-7.6,2.44,0,3.48-.34,3.83-1.73v-2.08c1.04,0,2.41,2.08,4.12,5.88l12.44-2.08c2.05,0,3.11-1.04,3.8-3.8,2.08,0,3.8,2.08,5.53,5.88h2.08v-2.08c.69,0,.69-1.73,0-5.53l7.57,3.8,1.75-7.6,2.05,3.8,5.55,5.53,14.49-1.73c0-2.08,.35-2.08,1.04,.34l1.04,5.17h1.72l18.29-1.73v-2.08h2.08v2.08h1.72c0,1.04-1.04,3.1-3.8,5.53h-1.72c2.08,1.04,4.49,1.37,6.91,1.37h10l5.53,5.86c2.76,0,3.8-.69,3.45-2.06h1.75v2.06c1.36,0,1.36,1.04,0,3.81v1.73l9.65-1.73c-.35,1.02-1.04,1.73-2.08,1.73v1.74c1.04,0,2.44,.69,3.8,2.05-2.41,0-1.36,2.08,2.76,6.23l8.64,8.29c0,1.36,1.72,2.41,5.19,3.8h-1.72c0,2.08,2.05,4.84,5.85,8.96,4.15,4.51,6.56,7.95,6.91,10.03h7.6c0,.69-1.75,2.05-5.55,3.45v2.08c5.19,0,7.6,3.45,7.6,10.69l2.79,10.36c-2.08,23.13-10.39,36.94-25.2,41.44v2.08c2.76,0,2.05,1.01-1.75,3.8v1.7h-1.72v2.08h-2.08l-1.72-3.77c-.32,2.41-2.08,4.12-5.16,6.54l-7.95,4.51c-.32,1.36-.69,2.05-2.08,2.05,0-2.05-1.72-2.05-5.53,0h1.75l-5.19,1.73v3.8h-1.72v-3.8h-2.08c0,2.08-8.96,7.28-26.57,15.55l-32.48,13.8c-26.21,3.45-49.01,3.8-69.05,.35,0,1.04-1.72,1.04-5.53,0h-1.73c0,1.36-.69,1.73-2.08,1.73v-1.73c-6.56,0-15.17-2.08-26.24-5.88-12.06-5.19-18.29-10-17.94-14.85l-5.53-1.73v-3.48c-1.39,0-2.08,.35-2.08,1.39-1.39,0-3.45-5.53-5.53-16.24l-2.76-20.36,1.04-15.2c-1.39,0-2.44-.69-3.48-1.73,4.84,0,5.19-3.8,1.39-10.69,1.73-.35,2.41-1.39,2.08-3.8v-3.8c0-4.15,2.05-10.71,6.56-19.69,4.49-10,8.61-15.89,12.09-17.6l-1.39-4.84-2.41-4.15h1.73c0-1.04,1.04-2.05,2.76-2.76l3.09-2.76c2.08,0,4.51,1.04,6.91,3.8l16.93-13.45c-1.04,0-1.73-.71-1.73-1.74l7.6-1.73h1.73c0,1.02-1.04,2.43-3.45,3.46l-2.08,7.92h3.8v1.73l5.53-6.21c3.8-4.49,7.25-6.9,10.69-6.9l-3.44-5.82h0Zm296.26-168.49c2.41,0,4.12-1.73,5.85-5.53v-2.08h1.75l-1.75,5.88h5.53c0-4.49,4.84-7.59,14.51-9.68,6.23,0,14.85-1.37,25.54-4.49,11.08-3.8,19.71-5.88,24.88-6.21v-1.74c.71,0,.71,1.73,0,5.53l7.25-1.73c2.08-.35,3.45-.7,3.8-2.08,0-.69,.35-1.04,.69-.69l1.04,2.76v1.73c2.08,0,4.15-1.04,6.91-2.76l7.25-4.14,32.13-6.21c0-2.76,2.41-1.37,7.57,3.8,1.04,0,1.75-2.76,1.75-7.6h22.44c7.6-1.04,14.16-4.14,20.36-8.98h2.08l1.72,5.19,6.21-.35,6.56,4.14c0,1.37,.69,1.73,2.76,1.04l4.49-2.76c0,3.45,2.79,4.14,7.6,1.73h2.08l-2.08,5.53h2.08l-3.8,3.8c1.04,0,1.72,1.37,1.72,3.8-2.41,0-3.11,1.73-1.72,5.53,0,1.39-.69,2.08-1.72,2.08-.35,1.04-1.04,1.73-2.08,1.73v3.46c.71,0,.71,2.41,0,7.59,0,1.37-1.72,3.8-5.16,7.25-3.11,3.1-4.51,5.88-4.15,7.6l-7.6,12.76h-4.81c.69,3.46,0,4.5-2.08,3.8-.35,1.73-3.11,7.59-8.99,16.93l-12.09,16.58-1.72,3.79c-2.08,2.08-4.49,4.84-6.56,8.3l-7.92,13.8c0,1.04-3.8,4.49-11.4,9.33,0,3.45-6.56,13.8-19.69,31.08l-44.89,61.8v1.73c-1.04,0-1.72,.35-1.72,1.39h-1.72l-1.72,3.8-2.76,3.11c-26.95,33.49-40.4,50.74-40.4,52.46h-2.08c0,1.04-.69,1.73-1.72,1.73,0-.69-3.8,1.39-11.05,5.88v1.73h-3.45c-.35-1.04,1.7-2.41,5.53-3.8v-1.73l-13.13-2.08v-1.73h-2.08v-1.36l2.08-.35c2.41-.69,1.72-2.08-2.08-3.45-.35-11.05-1.04-17.96-1.75-20.73,0-1.36-.69-2.08-2.05-2.08v-1.73l5.88,1.73v-1.73h-2.08c0-1.73-1.04-2.41-3.8-1.36h-1.72l1.72-2.08c0-13.13-.35-21.08-1.72-24.16,1.36,0,1.72-.71,1.72-1.39l-2.76-22.79c-.69-8.98,0-16.23,2.76-22.1l-1.04-5.17c-1.07-1.89-1.31-4.13-.69-6.21l-3.48-11.05-.69-13.46c-.35-5.17-1.36-9.33-2.76-12.09l-2.08-9.31c1.75,0,1.75-2.76,0-8.64l-3.8-9.66h2.08l-5.85-21.06-1.39-17.26-.35-1.04c-1.36,0-2.08-.69-2.08-1.73,1.39,0,2.08-6.9,2.08-20.36h3.8c1.39,0,1.72-.7,1.72-1.73-1.04,0-2.41-1.39-3.77-3.8h-1.75v-2.08l9.33,3.8v-5.56h2.08v3.8c.69,0,1.39-2.41,1.39-7.59h1.72l2.08,5.53,7.25-1.73v-3.8h-.01Z"/>
      <path class="cls-1" d="M2140.18,151.91c-1.39,0-2.08-.69-1.72-1.73h-2.08v3.79c.7,0,2.08-.69,3.8-2.06Zm-965.73-29.01c-3.79-13.11-13.13-20.03-27.28-20.71-8.98,5.86-14.5,13.46-16.23,22.79l-7.6,52.83c-1.04,10-.7,17.95,1.04,24.16-.7,0-1.04,1.73-1.04,5.53l-5.53,138.8-10.7,100.83,2.41,85.63c.34,10,3.11,17.96,7.25,23.81,12.78,17.63,34.53,23.49,64.91,16.59,13.46-3.11,22.1-4.49,25.9-4.15,16.93,1.39,26.93,3.11,30.73,5.19,2.76,1.01,7.25,4.49,13.13,9.65,5.53,4.49,10,7.28,14.16,8.29l22.8,1.75c9.65,.32,16.9,1.73,21.4,4.81l20.36,1.73c0,.71,2.41,2.08,7.6,3.8,24.85,4.51,40.74,3.48,47.29-3.8,6.91-7.25,10-15.17,8.64-23.81-2.08-15.52-11.05-25.89-26.93-30.04l-45.93-2.08-62.85,5.88-19.32,5.53c-5.53,1.04-12.79,1.04-21.41,0h-3.8c0,1.04-1.37,1.73-3.8,1.73,0,1.39-.69,1.39-2.08,0h-3.1v3.8h-3.8v3.8h-2.08c0-1.04-1.73-2.41-5.53-4.12l-30.04-10.03c-10.01-3.8-16.93-11.37-20.38-22.77-1.37-5.19-2.08-13.8-1.37-25.91,.34-18.29,3.1-41.78,7.59-70.43l4.84-18.65,12.09-142.6c1.04-18.65,2.08-29,3.45-31.76,0-20.03,.35-32.8,1.04-38.33,3.45-29.7,4.84-46.61,4.49-50.41l.69-13.81c.36-5.53,.01-10.35-1.02-13.48h0Zm566.93-26.57h-3.8v3.79c1.71,.01,2.76-1.04,3.8-3.79Zm465.08,114.98c-1.36,0-1.04,.69,1.72,1.73,0-1.37-.32-2.76-1.72-3.45v1.73h0Zm-25.89,35.21c1.72,0,1.72-1.73,0-5.53l-1.72,3.79c.92-.04,1.69,.68,1.73,1.59,0,.05,0,.1,0,.15Zm-357.02,303.84c-1.36-.32-2.08-.69-2.08-2.08h-2.05v3.8c1.36,0,2.75-.69,4.12-1.73h0ZM231.51,229.6c0,.69-3.11,2.06-9.33,4.49-10.35,2.76-21.75,7.6-34.18,14.5l-32.8,18.3c-15.19,8.29-37.29,27.63-66.29,57.66l-29,27.96-29.7,44.89c-13.8,19.32-20.38,33.14-19.34,41.78-1.37,0-3.1,4.84-5.53,14.85-6.56,30.4-6.9,47.31-2.08,51.45-.69,9.68,1.37,20.73,6.21,33.16l5.17,15.89c1.74,6.21,4.14,11.37,6.91,15.52l22.44,16.24c15.54,13.13,29.69,21.4,42.13,25.54l26.94,14.16,77.69,8.96,43.16-2.41,4.49-1.73,35.56-3.8,15.19-5.16,17.95-3.8c19.34-6.23,45.58-19,78.38-39.71l13.13-7.6,15.19-18.29c20.03-25.2,32.11-47.29,36.25-65.25,1.04-6.23,.69-15.2-1.39-27.96-4.49-24.16-18.65-42.13-42.46-54.56-21.4-11.4-45.58-15.89-72.85-14.16l-29.7,4.51c-11.39-.35-24.18,2.41-38.66,7.25l-35.23,14.85c0-1.39-1.72-1.39-5.17-.69l-7.95,2.41v2.08c-31.08-.35-54.55,14.49-70.09,44.2-.34,8.29,1.04,15.86,3.11,22.42,.34,2.76,1.37,4.84,2.76,7.6l6.56,8.99c1.37,0,2.43,.69,3.1,2.76l1.39,4.12c9.66,9.33,15.54,17.6,18.3,25.2,.35,1.39,.69,10,.35,25.2,0,10.03,3.45,16.24,10.35,18.65v-2.08h2.08c0-18.29,.69-28.65,1.72-31.06,0-3.48,4.49-8.29,13.81-14.51l18.3-13.45c1.72-1.39,4.49-6.91,9.33-16.24l2.76-10c0-10.36,2.43-18.65,6.56-24.85l12.43-13.83,18.3-7.92,25.21-6.91c13.8-3.45,22.77-3.8,26.58-2.08,16.23,0,31.08,2.44,44.2,6.91,17.6,5.88,27.63,14.85,30.04,27.29,1.04,3.45,.35,10.36-2.08,19.69-2.76,13.45-8.29,25.2-16.58,35.21-23.13,27.96-58.69,48.69-107.38,61.45-15.89,4.15-26.24,5.88-31.41,5.19v2.05l-7.6,1.75c-53.85,0-93.56-4.15-120.15-13.13-41.44-13.83-64.91-40.76-71.13-79.41-3.45-29,.34-52.14,11.39-69.05l17.95-34.2c7.25-13.8,15.89-23.13,24.86-28.65,18.3-19.32,28.31-30.39,29.69-32.8,1.37,0,1.72,1.04,2.08,3.11h3.45c0-4.14,6.56-11.05,19.34-21.06,35.56-28.31,83.9-50.75,145.7-67.68l33.15-5.17c21.75,0,36.95,1.04,45.58,3.45l33.49,12.09c27.96-13.81,40.75-24.53,38.33-33.15-3.8-11.39-12.78-20.03-26.93-25.2-4.5-2.08-17.26-5.17-38.66-9.66l-3.8,2.06-25.9,1.73c0-2.06-3.45-.69-10.7,3.8l-26.24,2.43c-10.7,1.04-19.34,.7-25.55-.34l-13.11,3.8v1.73h-3.8c-4.84,2.43-9.68,4.84-14.5,6.56l-18.99,6.56c-1.39,0-2.08,1.04-1.72,3.46-2.08-.35-5.17,1.04-8.98,3.45-.03-1.13-.71-1.82-2.09-1.82h0Z"/>
      <path class="cls-1" d="M414.15,264.13c11.74,3.1,22.44-.34,32.13-10.36l-32.13,10.36Zm326.63-113.94c-6.9,2.76-10.35,4.49-10.7,5.53-3.46,0-6.56,2.43-10.01,7.6l-6.9,11.05c-2.43,1.73-5.88,3.46-11.06,5.53v1.73c-1.02,0-1.72-.69-1.72-1.73-1.44,.06-2.8,.68-3.79,1.73h2.08l-2.43,1.04c-8.64,4.14-16.93,8.3-25.55,12.43-8.64,5.53-15.89,12.09-20.71,20.03,1.04,0,1.37,2.43,1.37,7.6,0,6.21,3.11,12.09,9.68,17.28,6.55,5.53,14.15,8.62,21.75,8.96l24.86-2.41c1.72,0,2.76-1.73,3.45-5.53h3.8c0,3.45,1.37,6.21,3.79,7.59,1.72,0,2.76,1.04,3.8,3.8,2.06,6.9,3.45,21.06,4.14,42.13l7.26,70.78v1.73c-1.04,0-1.72,2.76-2.08,7.95-.34,5.88-1.04,9.33-1.72,10.36,0,1.73-1.72,1.04-5.19-2.08l-6.55-6.91c-13.81-22.09-33.15-41.08-58-56.26l-22.1-13.81c-3.1-2.08-6.9-6.21-11.74-12.43-4.49-5.86-8.29-9.66-11.39-12.09,0-4.84-9.68-7.59-29.7-7.25,0,1.04-1.04,2.43-3.45,3.45v-1.73l-2.08,.35c-26.58,8.29-46.96,22.1-61.1,42.13l-22.79,50.4c-7.25,17.96-10.01,27.96-8.98,29.36l-5.53,21.05,.35,31.44c.69,17.25,2.08,26.93,3.45,29,0,8.61,3.1,20.01,8.98,34.53,5.88,14.14,11.74,24.5,17.26,31.41,7.94,10,15.89,15.89,24.18,18.65,14.15,4.15,34.88,2.08,62.15-5.88,24.86-7.6,43.5-16.21,55.59-25.89l40.05-41.44,29-20.73c0-1.01,.69-1.7,2.06-1.7l1.72,4.49,3.11,3.8,7.59,21.05c-1.04,0-1.37,2.41-.35,6.21l2.43,8.99,5.17,33.81c2.08,13.83,2.76,25.2,2.43,34.53l-3.45,40.08c-.69,12.41,2.41,25.17,8.98,37.98,0,1.39,2.43,1.73,7.6,1.73,0,2.08,1.37,3.8,4.14,5.88l6.55,3.09c2.43,0,2.08,4.84-1.04,14.16l-5.88,17.28h1.72v2.05h5.17l3.46-11.37c2.76-8.99,5.53-14.85,7.25-17.28l18.65-14.14c7.94-5.88,12.43-12.11,13.48-18.66,1.36-8.5,1.01-17.18-1.04-25.54l-5.53-24.16-2.43-83.56c-.34-5.16,.35-9.68,1.74-12.76-.35-2.08,1.04-3.8,3.45-5.53,0-4.15,8.98-5.88,26.59-4.15,12.78,1.04,26.59,7.6,41.78,19,7.25,5.88,18.99,16.56,34.86,32.8,17.61,17.25,26.93,27.61,28.65,30.04,10.71,16.21,20.71,26.93,30.05,32.1,7.25,3.45,14.15,1.73,20.71-5.16,6.9-7.95,9.66-15.55,8.64-22.8-1.37-8.29-8.98-21.76-23.14-39.01-12.09-14.51-23.49-26.24-33.49-34.88l-25.9-20.01c-11.39-9.33-17.95-17.28-19.32-23.84-.7-3.8-.34-7.25,2.06-10l30.04-25.56,33.83-38.33c8.98-11.72,14.85-22.77,16.93-33.49,5.51-26.24,5.51-47.29,0-63.53-9.68-26.94-29.01-51.1-58.36-72.5-25.2-17.95-53.51-31.08-85.28-40.05l-62.15-7.94c-4.82-.75-16.56-5.59-35.21-13.53h0Zm-157.1,196.12c0,1.73,3.46,1.73,10.7,1.04l13.48-2.76c3.79,2.41,11.74,6.21,23.48,11.06,8.28,3.37,16.16,7.65,23.49,12.76,5.17,4.15,10.35,10.36,15.52,19,6.21,10.36,10.36,17.25,13.13,20.01-.69,0-.35,5.88,.35,17.28,1.02,11.72-.35,18.97-4.15,21.76,0,12.41-2.75,23.13-8.29,33.14-10.7,17.6-27.96,32.45-51.79,45.21-27.96,14.16-49.38,15.89-65.25,4.15-17.26-12.76-26.93-36.94-29.35-72.85-2.76-34.53,2.43-61.1,14.85-79.76,4.14-5.85,10.7-11.37,20.38-16.9l23.46-13.14h0Zm208.89-127.4l9.68-2.08h3.8c-.35,1.04,2.08,1.73,6.9,2.08h9.33c11.74,1.37,26.59,6.9,43.85,16.56,24.51,13.81,41.43,26.59,51.1,37.99,14.5,17.6,18.3,37.63,11.05,60.08,0,0-.35,2.76-2.08,7.6h-1.73l1.73,1.37c-.06,1.44-.68,2.81-1.73,3.8l-2.43,4.84-3.8,4.14c-6.9,11.05-16.23,20.73-28.65,29.69l-33.84,22.44c-5.53,0-11.74-1.73-18.99-5.16l-17.6-7.25-15.54-1.75c-6.9-.32-11.4-1.73-14.16-4.49-4.14-4.12-8.29-14.85-11.74-32.1-4.15-16.94-6.91-35.23-8.64-54.56-3.8-49.71,1.72-75.96,16.58-79.41,0-1.71,2.41-3.09,6.9-3.77h0ZM1054.3,59.39l-10.01,6.21c-4.14,1.73-7.25,3.46-9.33,5.88-6.55,7.25-8.62,17.26-5.86,29,2.43,11.39,7.59,20.03,15.89,25.55,0,1.37,3.8,2.08,11.39,2.08,11.74-2.76,18.65-4.49,20.03-6.21,6.56-5.17,8.98-13.81,6.56-25.55-1.73-10.36-5.88-18.65-11.74-24.86l-16.93-12.09h0Zm5.51,188.52c.69-9.68,.34-17.61-.69-23.49-.7-4.84-5.54-11.4-14.16-18.65-8.29,4.49-13.13,8.64-15.19,12.09-1.73,3.1-3.79,12.09-6.21,26.93-2.43,16.23-5.17,28.66-7.94,37.64l-.34,1.04-4.15,24.53,2.76,109.11c0,26.93,.7,45.93,1.74,56.98,2.76,20.36,7.94,36.94,16.23,50.05-.34-1.04,1.04-1.04,3.45,0v-1.73c5.88,6.56,9.68,10.36,11.39,11.4v-2.08l13.81-15.52c2.43-4.49,3.11-10.36,2.43-17.96l-3.11-18.29,1.04-23.84-1.73-15.2,5.17-135-4.84-33.83,.34-24.18h0Z"/>
    </g>
  </g>
</svg>